<?xml version="1.0" encoding="utf-8"?>
<!-- Generator: Adobe Illustrator 25.2.0, SVG Export Plug-In . SVG Version: 6.00 Build 0)  -->
<svg version="1.1" id="Layer_1" xmlns="http://www.w3.org/2000/svg" xmlns:xlink="http://www.w3.org/1999/xlink" x="0px" y="0px"
	 viewBox="0 0 32 32" style="enable-background:new 0 0 32 32;" xml:space="preserve">
<style type="text/css">
	.st0{fill:#660090;}
	.st1{fill:#9A0AD6;}
	.st2{fill:#583072;}
	.st3{fill:#7902AB;}
	.st4{fill:#D078F5;}
	.st5{fill:#310146;}
	.st6{fill:#66307F;}
	.st7{fill:#C65AF3;}
</style>
<g id="a">
	<g transform="translate(1.488 6.767)">
		<path class="st0" d="M0,9.6l16.2,10.1L29.7,9.6L13.2,1.4L0,9.6z"/>
	</g>
	<g transform="translate(-2 2.599)">
		<path class="st1" d="M8.6,12.7l11.7,7.1l0.1-10.1L8.6,3.6V12.7z"/>
		<path class="st2" d="M8.6,6.1l11.9,6.4v-1.1L8.6,5.1V6.1z"/>
		<path class="st2" d="M8.6,7.9l11.9,6.4v-1.1L8.6,6.9V7.9z"/>
		<path class="st2" d="M8.6,9.8l11.9,6.6l0.1-1.1l-12-6.4L8.6,9.8z"/>
		<path class="st2" d="M9.3,13.3l10,5.9v-2.5l-10-5.6V13.3z"/>
		<path class="st3" d="M20.3,19.9l7.2-5.2l0.2-9.2l-7.3,4.4L20.3,19.9z"/>
		<path class="st4" d="M8.6,3.7l11.8,6.1l7.4-4.5L16,0L8.6,3.7z"/>
		<path class="st5" d="M20.5,11.4L27.7,7L27.6,8l-7.2,4.4V11.4z"/>
		<path class="st5" d="M20.5,13.2l7.3-4.4l-0.1,1.1l-7.2,4.4V13.2z"/>
		<path class="st5" d="M20.5,15l7.3-4.4l-0.1,1.1l-7.2,4.4V15z"/>
		<path class="st5" d="M21.1,16.4l5.9-3.6v2.3l-5.9,4.2V16.4z"/>
		<path class="st6" d="M16.7,10.8l1-0.6V5.8l-6.2-2.8l-0.9,0.4L16.7,10.8z"/>
		<path class="st7" d="M10.6,7.6l6,3.2l0.1-4.6l-6.1-2.8V7.6z"/>
	</g>
</g>
</svg>
