<?xml version="1.0" encoding="utf-8"?>
<!-- Generator: Adobe Illustrator 25.2.0, SVG Export Plug-In . SVG Version: 6.00 Build 0)  -->
<svg version="1.1" id="Layer_1" xmlns="http://www.w3.org/2000/svg" xmlns:xlink="http://www.w3.org/1999/xlink" x="0px" y="0px"
	 viewBox="0 0 32 32" style="enable-background:new 0 0 32 32;" xml:space="preserve">
<style type="text/css">
	.st0{fill:#660090;}
	.st1{fill:#9A0AD6;}
	.st2{fill:#7902AB;}
	.st3{fill:#66307F;}
	.st4{fill:#583072;}
	.st5{fill:#34024F;}
	.st6{fill:#310146;}
	.st7{fill:#E1A9FF;}
	.st8{fill:#9E60BF;}
	.st9{fill:#D078F5;}
	.st10{fill:#A666D8;}
	.st11{fill:#603A84;}
	.st12{fill:#734299;}
	.st13{fill:#5F377F;}
	.st14{fill:#A96CEF;}
	.st15{fill:#7F49AA;}
	.st16{fill:#7845A0;}
	.st17{fill:#AF6AD3;}
</style>
<g id="a">
	<g transform="translate(1.488 6.767)">
		<path class="st0" d="M0,9.6l16.2,10.1L29.7,9.6L13.2,1.4L0,9.6z"/>
	</g>
	<g transform="translate(0 1.145)">
		<path class="st1" d="M8.6,15.1l7.8,4.7V9.1l-7.8-4V15.1z"/>
		<path class="st2" d="M21,18.9l4-3.3l0.2-9.9L21,8.8V18.9z"/>
		<path class="st3" d="M16.4,9.2l4.6-0.3v10.2l-4.6,0.5V9.2z"/>
		<path class="st4" d="M8.6,13.2l7.8,4.3v2.3l-7.8-4.7V13.2z"/>
		<path class="st5" d="M16.4,17.3l4.7-0.2v2.4l-4.7,0.2l0,0V17.3z"/>
		<path class="st6" d="M21.1,17.3l4-3v2l-4,3.2L21.1,17.3z"/>
		<path class="st7" d="M7.9,5.2l8.5,4.6l4.8-0.3l4.8-3.7L15.4,0.9L7.9,5.2z"/>
		<path class="st8" d="M8.6,5.1l7.7,4.1L21.1,9l4.1-3.2l-9.8-4.5L8.6,5.1z"/>
		<path class="st9" d="M10.8,5l4.9-2.7l7.5,3.6l-2.5,1.9L16.5,8L10.8,5z"/>
		<path class="st10" d="M14.4,4.2l1.8-1.1l2.5,1.1l-2,1.2L14.4,4.2z"/>
		<path class="st11" d="M8.1,5.7l8.4,4.6V9.7L7.9,5.1L8.1,5.7z"/>
		<path class="st12" d="M21.2,9.5l-4.7,0.3v0.5l4.6-0.2L21.2,9.5z"/>
		<path class="st13" d="M26,5.7l-4.8,3.8l-0.1,0.6l4.6-3.5L26,5.7z"/>
		<path class="st14" d="M8.6,12.4L8.1,13l8.3,4.7v-0.9L8.6,12.4z"/>
		<path class="st15" d="M16.4,16.9l1.1,0l0.6-0.3h1.4l0.6,0.4l0.9-0.1v0.8h-1l-0.6-0.4l-1.2,0.1l-0.7,0.4l-1.1,0V16.9z"/>
		<path class="st16" d="M21.1,16.8l4-3.1l0.5,0.5l-4.4,3.4L21.1,16.8z"/>
		<path class="st4" d="M9,6.3l1,0.6v6l-1-0.5V6.3z"/>
		<path class="st4" d="M15,9.7l1,0.6v6l-1-0.5V9.7z"/>
		<path class="st6" d="M22.8,9.2l-1,0.8v6l1-0.8V9.2z"/>
		<path class="st6" d="M24.7,7.7l-1,0.8v6l1-0.8V7.7z"/>
		<path class="st4" d="M11,7.5L12,8v6l-1-0.5V7.5z"/>
		<path class="st4" d="M13,8.5l1,0.6v6l-1-0.5V8.5z"/>
		<path class="st17" d="M17.5,10.6h2.7v5.8h-2.7V10.6z"/>
	</g>
</g>
</svg>
